<svg id="Capa_1" enable-background="new 0 0 512 512" height="512" viewBox="0 0 512 512" width="512" xmlns="http://www.w3.org/2000/svg" xmlns:xlink="http://www.w3.org/1999/xlink"><linearGradient id="SVGID_1_" gradientUnits="userSpaceOnUse" x1="74.98" x2="437.019" y1="437.019" y2="74.981"><stop offset=".0056" stop-color="#0056e0"/><stop offset="1" stop-color="#00e5b8"/></linearGradient><radialGradient id="SVGID_2_" cx="256" cy="256" gradientUnits="userSpaceOnUse" r="256"><stop offset="0" stop-color="#0072ff"/><stop offset=".1542" stop-color="#007cf9" stop-opacity=".846"/><stop offset=".4129" stop-color="#0096e9" stop-opacity=".587"/><stop offset=".7424" stop-color="#00c0cf" stop-opacity=".258"/><stop offset="1" stop-color="#00e5b8" stop-opacity="0"/></radialGradient><linearGradient id="lg1"><stop offset="0" stop-color="#0072ff"/><stop offset="1" stop-color="#00e5b8"/></linearGradient><linearGradient id="SVGID_3_" gradientUnits="userSpaceOnUse" x1="304.522" x2="468.986" xlink:href="#lg1" y1="199.23" y2="34.766"/><linearGradient id="SVGID_4_" gradientUnits="userSpaceOnUse" x1="314.455" x2="435.834" y1="250.756" y2="129.378"><stop offset="0" stop-color="#00e5b8"/><stop offset="1" stop-color="#85ffe0"/></linearGradient><linearGradient id="SVGID_5_" gradientUnits="userSpaceOnUse" x1="340.797" x2="523.213" xlink:href="#lg1" y1="269.705" y2="87.289"/><linearGradient id="SVGID_6_" gradientUnits="userSpaceOnUse" x1="353.467" x2="415.212" y1="201.023" y2="201.023"><stop offset="0" stop-color="#230be0"/><stop offset=".1026" stop-color="#1b3cd7" stop-opacity=".897"/><stop offset=".2118" stop-color="#1469cf" stop-opacity=".788"/><stop offset=".3258" stop-color="#0e8fc8" stop-opacity=".674"/><stop offset=".4432" stop-color="#09afc2" stop-opacity=".557"/><stop offset=".5651" stop-color="#05c7bd" stop-opacity=".435"/><stop offset=".6932" stop-color="#02d8ba" stop-opacity=".307"/><stop offset=".8318" stop-color="#01e2b8" stop-opacity=".168"/><stop offset="1" stop-color="#00e5b8" stop-opacity="0"/></linearGradient><linearGradient id="lg2"><stop offset="0" stop-color="#3ca1ff"/><stop offset=".8352" stop-color="#85ffe0"/><stop offset=".9067" stop-color="#9dffe6"/><stop offset="1" stop-color="#c2fff0"/></linearGradient><linearGradient id="SVGID_7_" gradientUnits="userSpaceOnUse" x1="-42.086" x2="427.898" xlink:href="#lg2" y1="447.97" y2="-22.014"/><linearGradient id="SVGID_8_" gradientUnits="userSpaceOnUse" x1="-35.137" x2="466.821" xlink:href="#lg2" y1="599.199" y2="97.241"/><linearGradient id="SVGID_9_" gradientUnits="userSpaceOnUse" x1="-181.483" x2="537.97" xlink:href="#lg2" y1="641.439" y2="-78.014"/><linearGradient id="SVGID_10_" gradientUnits="userSpaceOnUse" x1="142.547" x2="470.327" xlink:href="#lg2" y1="623.709" y2="295.93"/><linearGradient id="SVGID_11_" gradientUnits="userSpaceOnUse" x1="163.765" x2="564.333" y1="550.333" y2="149.765"><stop offset="0" stop-color="#389fff"/><stop offset=".1278" stop-color="#45affa"/><stop offset=".6054" stop-color="#73e9e7"/><stop offset=".8352" stop-color="#85ffe0"/><stop offset=".9067" stop-color="#9dffe6"/><stop offset="1" stop-color="#c2fff0"/></linearGradient><linearGradient id="SVGID_12_" gradientUnits="userSpaceOnUse" x1="131.168" x2="597.422" xlink:href="#lg2" y1="466.498" y2=".245"/><linearGradient id="SVGID_13_" gradientUnits="userSpaceOnUse" x1="112.794" x2="442.795" xlink:href="#lg2" y1="540.221" y2="210.22"/><linearGradient id="SVGID_14_" gradientUnits="userSpaceOnUse" x1="164.649" x2="343.801" y1="481.496" y2="302.344"><stop offset="0" stop-color="#c2fff0"/><stop offset=".0591" stop-color="#c6fff1"/><stop offset=".6799" stop-color="#effffb"/><stop offset="1" stop-color="#fff"/></linearGradient><linearGradient id="SVGID_15_" gradientUnits="userSpaceOnUse" x1="248.57" x2="248.57" y1="350.887" y2="436.621"><stop offset="0" stop-color="#00babd"/><stop offset=".0046" stop-color="#02bbbe" stop-opacity=".995"/><stop offset=".1223" stop-color="#3dcacd" stop-opacity=".875"/><stop offset=".243" stop-color="#71d8da" stop-opacity=".751"/><stop offset=".3639" stop-color="#9ce4e5" stop-opacity=".628"/><stop offset=".485" stop-color="#c0eeef" stop-opacity=".504"/><stop offset=".6066" stop-color="#dcf5f6" stop-opacity=".38"/><stop offset=".7287" stop-color="#effbfb" stop-opacity=".255"/><stop offset=".8518" stop-color="#fbfefe" stop-opacity=".129"/><stop offset=".9777" stop-color="#fff" stop-opacity="0"/></linearGradient><g><circle cx="256" cy="256" fill="url(#SVGID_1_)" r="256"/><circle cx="256" cy="256" fill="url(#SVGID_2_)" r="256"/><path d="m408.802 165c-20.374-.607-40.747-1.092-61.121-1.456-.313-25.4-.754-50.8-1.324-76.2 15.059.498 30.119 1.12 45.179 1.867 8.311.418 15.312 7.513 15.604 15.788.692 20.001 1.246 40.001 1.662 60.001z" fill="url(#SVGID_3_)"/><path d="m409.64 225c-20.485-.207-40.971-.372-61.456-.496-.107-25.4-.342-50.8-.706-76.2 15.246.318 30.493.715 45.739 1.192 8.416.271 15.409 7.227 15.585 15.503.417 20.001.696 40.001.838 60.001z" fill="url(#SVGID_4_)"/><path d="m405.123 289.442c-8.805 8.64-17.623 17.343-26.442 26.09-20.069-35-40.663-70.639-61.278-106.497 25.585.153 51.169.403 76.754.748 8.476.122 15.423 6.942 15.483 15.219.127 17.929.144 35.858.051 53.787-.021 3.976-1.666 7.804-4.568 10.653z" fill="url(#SVGID_5_)"/><path d="m391.536 89.212c-25.099-1.245-50.198-2.144-75.298-2.698.608 40.84.996 81.68 1.165 122.52 20.615 35.858 41.209 71.497 61.278 106.497 8.819-8.746 17.637-17.449 26.442-26.09 2.903-2.849 4.547-6.677 4.568-10.654.302-57.929-.548-115.858-2.55-173.787-.293-8.275-7.294-15.371-15.605-15.788z" fill="url(#SVGID_6_)"/><path d="m151 72.693c-24.791 1.104-45.81 22.533-46.633 47.308-2.823 90.667-2.823 181.333 0 272 35.381 1.586 70.762 2.618 106.143 3.094-21.204-108.343-42.575-216.233-59.51-322.402z" fill="url(#SVGID_7_)"/><path d="m361 72.693c-15-.634-30-1.131-45-1.493 1.586 97.675 1.914 195.352.986 293.027 20.329-.283 40.657-.707 60.986-1.272 1.76-91.483 1.262-182.966-1.494-274.448-.259-8.352-7.201-15.461-15.478-15.814z" fill="url(#SVGID_8_)"/><path d="m316 71.199c-55-1.327-110-.829-165 1.493-2.775 96.886-3.35 193.773-1.725 290.659 60.985 1.484 121.971 1.696 182.957.636 1.1-92.367.789-184.733-.934-277.1-.163-8.433-7.021-15.485-15.298-15.688z" fill="url(#SVGID_9_)"/><path d="m361.798 408.925c-9.955-4.712-19.95-9.509-29.982-14.375-.233 15.281-.506 30.563-.816 45.844 10-.302 20-.664 30-1.086 8.278-.355 15.219-7.463 15.477-15.814.258-8.354-6.327-14.854-14.679-14.569z" fill="url(#SVGID_10_)"/><path d="m362.962 348.16c-10.187.212-20.374.395-30.56.546-.156 15.281-.351 30.563-.585 45.844 10.187-5.321 20.4-10.661 30.635-16.007 8.393-.239 15.355-7.237 15.519-15.589.165-8.352-6.568-14.962-15.009-14.794z" fill="url(#SVGID_11_)"/><path d="m347.478 363.696c.124-8.412-6.635-15.11-15.077-14.99-60.85.906-121.7.73-182.55-.529-25.677-.46-46.718 19.482-45.453 44.605 1.236 24.399 22.11 45.437 46.602 46.526 10 .422 20 .784 30 1.086 49.586-18.867 100.069-39.742 151.037-61.125 8.394-.171 15.317-7.161 15.441-15.573z" fill="url(#SVGID_12_)"/><path d="m331.57 409.831c-9.469-4.59-18.972-9.247-28.507-13.959-56.114.786-112.229.166-168.343-1.859 1.084 24.627 21.787 45.601 46.28 46.381 50 1.508 100 1.508 150 0 8.278-.253 15.162-7.326 15.358-15.738.194-8.413-6.435-15.03-14.788-14.825z" fill="url(#SVGID_13_)"/><path d="m149.548 378.543c-8.39-.228-15.065 6.342-14.854 14.681.211 8.338 7.179 15.405 15.508 15.701 70.532 2.466 141.064 2.466 211.596 0 .242-10.128.46-20.255.654-30.383-70.968 1.977-141.936 1.977-212.904.001z" fill="url(#SVGID_14_)"/><path d="m149.548 378.543c-8.39-.228-15.065 6.342-14.854 14.681.211 8.338 7.179 15.405 15.508 15.701 70.532 2.466 141.064 2.466 211.596 0 .242-10.128.46-20.255.654-30.383-70.968 1.977-141.936 1.977-212.904.001z" fill="url(#SVGID_15_)"/></g></svg>